<svg version="1.2" xmlns="http://www.w3.org/2000/svg" viewBox="0 0 304 279" width="200" height="184"><style>tspan{white-space:pre}.a{fill:#6b7280}</style><path class="a" d="m108 218.7c0 0-11.7 22.3-5.2 41-4.3 2.9-4.3 2.9-4.3 2.9 0 0-12.2-19.1-4.1-47.4 4.6 0.9 13.6 3.5 13.6 3.5z"/><path class="a" d="m102 256.5c2.7-1.9 13.2 3.3 12.6 6.5-0.6 3.1-7.8-1.7-8.1 0.1-0.4 1.7 6.3 10.3 3.1 12.6-3.3 2.2-8.2-9.2-8.2-9.2 0 0 4.4 9.7 1.4 11.8-3.1 2.1-6.1-8.9-6.1-8.9 0 0 2.1 8.6-1.1 8-3.1-0.6-8.8-16.3 0.6-20.7"/></svg>