<svg version="1.2" xmlns="http://www.w3.org/2000/svg" viewBox="0 0 304 304" width="200" height="200"><defs><linearGradient id="P" gradientUnits="userSpaceOnUse"/><linearGradient id="g1" x2="1" href="#P" gradientTransform="matrix(0,-200.273,223.853,0,63.316,256.522)"><stop stop-color="#636b76"/><stop offset="1" stop-color="#636b76"/></linearGradient><linearGradient id="g2" x2="1" href="#P" gradientTransform="matrix(0,-41.473,38.429,0,44.213,113.593)"><stop stop-color="#fff"/><stop offset="1" stop-color="#dfdff2"/></linearGradient><linearGradient id="g3" x2="1" href="#P" gradientTransform="matrix(0,-41.473,38.429,0,154.387,113.593)"><stop stop-color="#fff"/><stop offset="1" stop-color="#dfdff2"/></linearGradient><clipPath clipPathUnits="userSpaceOnUse" id="cp1"><path d="m226.57 160.59c0 14.63-11.85 26.48-26.48 26.48-14.62 0-26.47-11.85-26.47-26.48 0-14.62 11.85-26.47 26.47-26.47 14.63 0 26.48 11.85 26.48 26.47z"/></clipPath><clipPath clipPathUnits="userSpaceOnUse" id="cp2"><path d="m124.82 160.59c0 14.63-11.86 26.48-26.48 26.48-14.62 0-26.48-11.85-26.48-26.48 0-14.62 11.86-26.47 26.48-26.47 14.62 0 26.48 11.85 26.48 26.47z"/></clipPath></defs><style>tspan{white-space:pre}.a{fill:#6b7280}.b{fill:url(#g1)}.c{fill:url(#g2)}.d{fill:url(#g3)}.e{fill:#b7bbc1}.f{fill:#333b3b}.g{fill:#facc86}.h{fill:#fac472}.i{fill:#ab8b5c}.j{fill:#e7bc7c}.k{fill:#d9aa62}.l{fill:#987b52}.m{fill:#fff}</style><path class="a" d="m212.4 212.1c19 19.1 35 29.4 47.7-6.5-6.2 0-6.2 0-6.2 0 0 0-14 25.1-30.3-5.3"/><path class="a" d="m108 218.7c0 0-11.7 22.3-5.2 41-4.3 2.9-4.3 2.9-4.3 2.9 0 0-12.2-19.1-4.1-47.4 4.6 0.9 13.6 3.5 13.6 3.5z"/><path class="a" d="m102 256.5c2.7-1.9 13.2 3.3 12.6 6.5-0.6 3.1-7.8-1.7-8.1 0.1-0.4 1.7 6.3 10.3 3.1 12.6-3.3 2.2-8.2-9.2-8.2-9.2 0 0 4.4 9.7 1.4 11.8-3.1 2.1-6.1-8.9-6.1-8.9 0 0 2.1 8.6-1.1 8-3.1-0.6-8.8-16.3 0.6-20.7"/><path class="a" d="m149.2 107.4c0-76.8-129.6-65.1-114.4 21.9 14.9 85.3 114.4 127.2 114.4 127.2 0 0 99.5-41.9 114.4-127.2 15.2-87-114.4-98.7-114.4-21.9z"/><path class="b" d="m188.9 57.7c30.9-3.4 67 22.7 58 74.4-14.9 85.4-105.9 102.4-105.9 102.4 0 0-74.8-16.3-100-82.7 26.3 70.2 108.2 104.7 108.2 104.7 0 0 99.5-41.9 114.4-127.2 9.6-54.7-38-79.6-74.7-71.6z"/><g style="opacity:.2"><path class="c" d="m85.8 76.8c-0.3 5-10.4 9.5-17 17.7-7.3 7.6-10.5 18.2-15.4 19.1-2.4 0.2-5.4-3.2-5.9-9.3-0.6-6 1.3-14.9 7.6-21.8 6.2-7.2 14.7-10.2 20.7-10.4 6.2-0.2 10 2.4 10 4.7z"/></g><g style="opacity:.2"><path class="d" d="m196 76.8c-0.3 5-10.4 9.5-17 17.7-7.4 7.6-10.5 18.2-15.5 19.1-2.3 0.2-5.3-3.2-5.8-9.3-0.6-6 1.3-14.9 7.6-21.8 6.2-7.2 14.7-10.2 20.7-10.4 6.2-0.2 9.9 2.4 10 4.7z"/></g><path class="e" d="m124.8 160.6c0 14.6-11.8 26.5-26.5 26.5-14.6 0-26.4-11.9-26.4-26.5 0-14.6 11.8-26.5 26.4-26.5 14.7 0 26.5 11.9 26.5 26.5z"/><path class="e" d="m226.6 160.6c0 14.6-11.9 26.5-26.5 26.5-14.6 0-26.5-11.9-26.5-26.5 0-14.6 11.9-26.5 26.5-26.5 14.6 0 26.5 11.9 26.5 26.5z"/><path class="f" d="m100.1 125c1.5-0.5 3.1-0.6 4.7-0.6q2.3 0.1 4.6 0.7c1.5 0.3 3 0.9 4.4 1.8 1.3 0.8 2.6 1.9 3.4 3.3-1.6-0.5-2.9-0.9-4.3-1.3-1.4-0.4-2.8-0.7-4.2-1.1-2.9-0.8-5.7-1.5-8.6-2.8z"/><path class="f" d="m200.1 116.8c1.7-0.4 3.5-0.3 5.2-0.1 1.7 0.3 3.4 0.7 5 1.5 1.6 0.7 3.2 1.5 4.5 2.8 1.3 1.2 2.4 2.7 2.8 4.4-1.4-1-2.7-1.9-4.1-2.6-1.4-0.8-2.9-1.4-4.3-2-2.9-1.3-6-2.4-9.1-4z"/><path class="f" d="m145.9 162.8c1-1.1 2.1-2 3.4-2.7 1.3-0.7 2.6-1.4 4.4-1.4 0.4 0 1 0.2 1.5 0.6 0.4 0.5 0.5 1 0.6 1.5 0 0.9-0.2 1.6-0.5 2.3-0.6 1.4-1.4 2.6-2.4 3.7 0.4-1.4 0.8-2.7 1.1-4.1 0.1-0.6 0.3-1.3 0.2-1.8-0.1-0.4-0.2-0.5-0.7-0.5-1-0.1-2.4 0.4-3.6 0.9-1.3 0.5-2.6 1-4 1.5z"/><g clip-path="url(#cp1)"><path class="f" d="m225.4 148.4c0 13.2-10.7 23.8-23.8 23.8-13.2 0-23.9-10.6-23.9-23.8 0-13.2 10.7-23.8 23.9-23.8 13.1 0 23.8 10.6 23.8 23.8z"/></g><g clip-path="url(#cp2)"><path class="f" d="m131 153.3c0 13.2-10.6 23.8-23.8 23.8-13.2 0-23.8-10.6-23.8-23.8 0-13.1 10.6-23.8 23.8-23.8 13.2 0 23.8 10.7 23.8 23.8z"/></g><path class="f" d="m140.6 195.6c0.9-1.8 2.1-3.5 3.5-5.1 1.3-1.5 2.8-3 4.5-4.2 0.8-0.7 1.7-1.2 2.8-1.6 1-0.4 2.2-0.7 3.4-0.2 1.3 0.4 2 1.5 2.3 2.5 0.4 1 0.4 2.1 0.5 3.1-0.7-1.9-1.6-4-3.2-4.3-1.5-0.3-3.3 0.7-4.8 1.8-3.2 2.3-6 5.2-9 8z"/><path class="g" d="m187.6 87.5l41.4 22.3c4 2.1 9 0.8 11.4-3l0.4-0.6c2.8-4.3 1.2-10.1-3.3-12.4l-41.8-21.6c-3.8-1.9-8.4-0.9-10.9 2.5-3.2 4.2-1.8 10.3 2.8 12.8z"/><path class="h" d="m198.8 93.5l16.8 9.1 9.3-15.3-17.1-8.8z"/><path class="i" d="m210.5 83c0 0.7-0.6 1.3-1.3 1.3-0.7 0-1.3-0.6-1.3-1.3 0-0.7 0.6-1.3 1.3-1.3 0.7 0 1.3 0.6 1.3 1.3z"/><path class="i" d="m214.9 85c0 0.7-0.6 1.3-1.3 1.3-0.7 0-1.3-0.6-1.3-1.3 0-0.7 0.6-1.3 1.3-1.3 0.7 0 1.3 0.6 1.3 1.3z"/><path class="i" d="m221.8 88.7c0 0.8-0.6 1.3-1.3 1.3-0.8 0-1.3-0.5-1.3-1.3 0-0.7 0.5-1.3 1.3-1.3 0.7 0 1.3 0.6 1.3 1.3z"/><path class="i" d="m218.3 86.9c0 0.7-0.6 1.3-1.3 1.3-0.7 0-1.3-0.6-1.3-1.3 0-0.8 0.6-1.3 1.3-1.3 0.7 0 1.3 0.5 1.3 1.3z"/><path class="i" d="m208.7 86.3c0 0.7-0.6 1.3-1.3 1.3-0.8 0-1.3-0.6-1.3-1.3 0-0.7 0.5-1.3 1.3-1.3 0.7 0 1.3 0.6 1.3 1.3z"/><path class="i" d="m213.1 88.2c0 0.8-0.6 1.3-1.3 1.3-0.7 0-1.3-0.5-1.3-1.3 0-0.7 0.6-1.3 1.3-1.3 0.7 0 1.3 0.6 1.3 1.3z"/><path class="i" d="m219.9 92c0 0.7-0.5 1.3-1.3 1.3-0.7 0-1.3-0.6-1.3-1.3 0-0.7 0.6-1.3 1.3-1.3 0.8 0 1.3 0.6 1.3 1.3z"/><path class="i" d="m216.5 90.1c0 0.7-0.6 1.3-1.3 1.3-0.7 0-1.3-0.6-1.3-1.3 0-0.7 0.6-1.3 1.3-1.3 0.7 0 1.3 0.6 1.3 1.3z"/><path class="i" d="m206.7 89.1c0 0.8-0.6 1.3-1.3 1.3-0.7 0-1.3-0.5-1.3-1.3 0-0.7 0.6-1.3 1.3-1.3 0.7 0 1.3 0.6 1.3 1.3z"/><path class="i" d="m211.1 91.1c0 0.7-0.6 1.3-1.3 1.3-0.7 0-1.3-0.6-1.3-1.3 0-0.7 0.6-1.3 1.3-1.3 0.7 0 1.3 0.6 1.3 1.3z"/><path class="i" d="m218 94.9c0 0.7-0.6 1.3-1.3 1.3-0.7 0-1.3-0.6-1.3-1.3 0-0.8 0.6-1.3 1.3-1.3 0.7 0 1.3 0.5 1.3 1.3z"/><path class="i" d="m214.5 93c0 0.7-0.6 1.3-1.3 1.3-0.7 0-1.3-0.6-1.3-1.3 0-0.7 0.6-1.3 1.3-1.3 0.7 0 1.3 0.6 1.3 1.3z"/><path class="i" d="m204.5 92c0 0.7-0.6 1.3-1.3 1.3-0.7 0-1.3-0.6-1.3-1.3 0-0.7 0.6-1.3 1.3-1.3 0.7 0 1.3 0.6 1.3 1.3z"/><path class="i" d="m208.9 94c0 0.7-0.5 1.3-1.3 1.3-0.7 0-1.3-0.6-1.3-1.3 0-0.8 0.6-1.3 1.3-1.3 0.8 0 1.3 0.5 1.3 1.3z"/><path class="i" d="m215.8 97.7c0 0.7-0.6 1.3-1.3 1.3-0.7 0-1.3-0.6-1.3-1.3 0-0.7 0.6-1.3 1.3-1.3 0.7 0 1.3 0.6 1.3 1.3z"/><path class="i" d="m212.3 95.8c0 0.8-0.5 1.3-1.3 1.3-0.7 0-1.3-0.5-1.3-1.3 0-0.7 0.6-1.3 1.3-1.3 0.8 0 1.3 0.6 1.3 1.3z"/><path class="j" d="m196.3 109.9l39-26.3c3.7-2.5 4.9-7.5 2.7-11.4l-0.4-0.7c-2.5-4.5-8.3-5.8-12.5-2.8l-38.6 26.9c-3.4 2.4-4.6 7-2.8 10.8 2.2 4.8 8.2 6.4 12.6 3.5z"/><path class="k" d="m206.8 102.8l15.9-10.7-9.2-15.3-15.8 11z"/><path class="l" d="m203 87.6c0.6 0.3 0.9 1.1 0.5 1.7-0.3 0.7-1.1 0.9-1.7 0.6-0.7-0.3-0.9-1.1-0.6-1.8 0.4-0.6 1.1-0.8 1.8-0.5z"/><path class="l" d="m206.8 84.6c0.6 0.3 0.8 1.1 0.5 1.7-0.3 0.7-1.1 0.9-1.8 0.6-0.6-0.3-0.8-1.1-0.5-1.8 0.3-0.6 1.1-0.8 1.8-0.5z"/><path class="l" d="m213.3 80.3c0.6 0.3 0.9 1.1 0.5 1.7-0.3 0.7-1.1 0.9-1.7 0.6-0.7-0.4-0.9-1.2-0.6-1.8 0.4-0.6 1.2-0.9 1.8-0.5z"/><path class="l" d="m210 82.5c0.6 0.3 0.9 1.1 0.6 1.7-0.4 0.6-1.2 0.9-1.8 0.6-0.6-0.4-0.9-1.2-0.6-1.8 0.4-0.6 1.2-0.9 1.8-0.5z"/><path class="l" d="m205 90.7c0.7 0.3 0.9 1.1 0.6 1.8-0.4 0.6-1.2 0.8-1.8 0.5-0.6-0.3-0.9-1.1-0.5-1.8 0.3-0.6 1.1-0.8 1.7-0.5z"/><path class="l" d="m208.8 87.7c0.6 0.3 0.9 1.1 0.5 1.8-0.3 0.6-1.1 0.8-1.7 0.5-0.6-0.3-0.9-1.1-0.6-1.7 0.4-0.7 1.2-0.9 1.8-0.6z"/><path class="l" d="m215.3 83.4c0.7 0.3 0.9 1.1 0.6 1.7-0.4 0.7-1.1 0.9-1.8 0.6-0.6-0.4-0.9-1.1-0.5-1.8 0.3-0.6 1.1-0.9 1.7-0.5z"/><path class="l" d="m212 85.6c0.7 0.3 0.9 1.1 0.6 1.7-0.3 0.7-1.1 0.9-1.8 0.6-0.6-0.4-0.8-1.1-0.5-1.8 0.3-0.6 1.1-0.9 1.7-0.5z"/><path class="l" d="m206.6 93.8c0.7 0.3 0.9 1.1 0.6 1.7-0.4 0.7-1.1 0.9-1.8 0.6-0.6-0.4-0.9-1.2-0.5-1.8 0.3-0.6 1.1-0.9 1.7-0.5z"/><path class="l" d="m210.4 90.8c0.7 0.3 0.9 1.1 0.6 1.7-0.4 0.7-1.2 0.9-1.8 0.6-0.6-0.4-0.9-1.2-0.5-1.8 0.3-0.6 1.1-0.9 1.7-0.5z"/><path class="l" d="m216.9 86.4c0.7 0.4 0.9 1.2 0.6 1.8-0.3 0.6-1.1 0.9-1.8 0.5-0.6-0.3-0.8-1.1-0.5-1.7 0.3-0.7 1.1-0.9 1.7-0.6z"/><path class="l" d="m213.7 88.6c0.6 0.4 0.8 1.2 0.5 1.8-0.3 0.6-1.1 0.9-1.7 0.5-0.7-0.3-0.9-1.1-0.6-1.7 0.3-0.7 1.1-0.9 1.8-0.6z"/><path class="l" d="m208.2 97c0.6 0.4 0.8 1.1 0.5 1.8-0.3 0.6-1.1 0.9-1.8 0.5-0.6-0.3-0.8-1.1-0.5-1.7 0.3-0.7 1.1-0.9 1.8-0.6z"/><path class="l" d="m211.9 94c0.7 0.4 0.9 1.1 0.6 1.8-0.4 0.6-1.1 0.9-1.8 0.5-0.6-0.3-0.9-1.1-0.5-1.7 0.3-0.7 1.1-0.9 1.7-0.6z"/><path class="l" d="m218.5 89.7c0.6 0.3 0.8 1.1 0.5 1.8-0.3 0.6-1.1 0.8-1.7 0.5-0.7-0.3-0.9-1.1-0.6-1.8 0.3-0.6 1.1-0.8 1.8-0.5z"/><path class="l" d="m215.2 91.9c0.6 0.3 0.9 1.1 0.5 1.7-0.3 0.7-1.1 0.9-1.7 0.6-0.7-0.3-0.9-1.1-0.6-1.8 0.4-0.6 1.1-0.8 1.8-0.5z"/><path class="a" d="m262.4 206.6c6.4-2.7 5.3-14.5 1.8-17.5-3.4-3-3.8 1.9-3.8 1.9 0 0-0.7-4.2-3.9-3.2-3.1 1-2.1 3.9-2.1 3.9 0 0-1.5-10.6-5.4-10.2-4 0.4 1.2 12.6 1.2 12.6 0 0-3.6-0.7-2.7 3.5 0.9 4.3 4.9 13.2 14.9 9z"/><path class="f" d="m260.4 191c0.5 1.2 0.9 2.5 1.4 3.7 0.4 1.2 0.8 2.5 1.4 3.4l0.3 0.4q0.1 0.1 0.2 0.2c0 0 0 0 0.1 0.1l0.4 0.1c0.6 0.1 0.8 0.1 1.1-0.2 0.5-0.7 0.6-2.2 0.8-3.5q0.4 0.9 0.5 2c0.1 0.6 0.2 1.4-0.2 2.2-0.2 0.4-0.6 0.9-1.1 1-0.5 0.2-1 0.1-1.4 0.1-0.2 0-0.3-0.1-0.5-0.1-0.2-0.1-0.5-0.3-0.7-0.4q-0.6-0.5-0.9-1c-0.8-1.3-1.1-2.6-1.3-4-0.2-1.3-0.3-2.7-0.1-4z"/><path class="f" d="m254.4 191.7c0.3 1.4 0.9 2.5 1.4 3.7 0.6 1.2 1.2 2.3 1.9 3.3 0.6 1 1.6 2 2.2 2 0.4 0 0.9-0.4 1.3-0.9 0.4-0.5 0.7-1.1 1-1.7 0 0.7-0.1 1.4-0.3 2.1-0.3 0.6-0.6 1.4-1.6 1.8-1 0.3-1.9-0.2-2.5-0.7-0.6-0.5-1.1-1-1.5-1.6q-1.2-1.8-1.7-3.8c-0.4-1.4-0.6-2.8-0.2-4.2z"/><path class="a" d="m250.2 194.1c0 0 7.5 0.4 7 6.1-0.2 2-3.6 1-3.6 1"/><path class="m" d="m250.2 194.1c1.2-0.3 2.5-0.2 3.8 0.2 1.3 0.4 2.5 1.2 3.3 2.5 0.4 0.6 0.6 1.3 0.7 2 0 0.4 0 0.7-0.1 1.1 0 0.3 0 0.8-0.3 1.2-0.6 0.9-1.6 0.9-2.2 0.8q-1-0.2-1.8-0.7c0.6 0 1.3 0 1.8-0.2 0.6-0.1 1-0.3 1.1-0.6 0-0.2 0-0.9-0.1-1.3-0.1-0.6-0.3-1-0.6-1.5-0.5-0.8-1.3-1.5-2.3-2.1-1-0.5-2.1-1-3.3-1.4z"/></svg>