<svg version="1.2" xmlns="http://www.w3.org/2000/svg" viewBox="0 0 323 323" width="323" height="323"><defs><clipPath clipPathUnits="userSpaceOnUse" id="cp1"><path d="m239.23 160.63c0 14.62-11.85 26.47-26.48 26.47-14.62 0-26.48-11.85-26.48-26.47 0-14.63 11.86-26.48 26.48-26.48 14.63 0 26.48 11.85 26.48 26.48z"/></clipPath><clipPath clipPathUnits="userSpaceOnUse" id="cp2"><path d="m137.48 160.63c0 14.62-11.86 26.47-26.48 26.47-14.63 0-26.48-11.85-26.48-26.47 0-14.63 11.85-26.48 26.48-26.48 14.62 0 26.48 11.85 26.48 26.48z"/></clipPath><linearGradient id="P" gradientUnits="userSpaceOnUse"/><linearGradient id="g1" x2="1" href="#P" gradientTransform="matrix(0,-41.473,38.429,0,56.872,113.624)"><stop stop-color="#fff"/><stop offset="1" stop-color="#dfdff2"/></linearGradient><linearGradient id="g2" x2="1" href="#P" gradientTransform="matrix(0,-41.473,38.429,0,56.872,113.624)"><stop stop-color="#fff"/><stop offset="1" stop-color="#dfdff2"/></linearGradient><linearGradient id="g3" x2="1" href="#P" gradientTransform="matrix(0,-41.473,38.429,0,167.047,113.624)"><stop stop-color="#fff"/><stop offset="1" stop-color="#dfdff2"/></linearGradient></defs><style>tspan{white-space:pre}.a{fill:#6b7180}.b{fill:#6b7280}.c{fill:#333b3b}.d{fill:#b7bbc1}.e{fill:#636b76}.f{fill:url(#g1)}.g{fill:url(#g2)}.h{fill:url(#g3)}.i{fill:#de6c6e}</style><path class="a" d="m219.1 202.6c19 19 34.9 29.4 47.7-6.6-6.3 0-6.3 0-6.3 0 0 0-13.9 25.2-30.3-5.2"/><path class="b" d="m266.4 187.3c0 0 2.5-7.8-2.9-8.8-5.4-0.9 0 5.3-1.5 6.8-1.5 1.5-8.9 14.6 0.1 16.2 9 1.6 4.3-14.2 4.3-14.2z"/><path class="b" d="m267.9 203.1c8 0 7.4-3.6 5.9-5.1 3.2-3.2 0.2-6.3 0.2-6.3 4.5-4.5 0.1-6.8-5.4-6.4-6.5 0.5-10.6 5.9-5 6.7-6.3 0.5-3.6 6.8 1.2 5.4-4.9 1.1-5.5 5.7 3.1 5.7z"/><path class="c" d="m268.6 185.3c-1 0.3-2.1 0.5-3.1 1-0.9 0.4-1.9 1-2.6 1.7-0.8 0.6-1.4 1.6-1.2 2.2 0.1 0.5 1 0.9 2 1l5.9 0.6-6 1c-0.8 0.1-1.7 0.3-2.4 0.6-0.6 0.5-0.9 0.9-0.6 1.4 0.2 0.5 0.9 1 1.7 1.3 0.8 0.3 1.6 0.5 2.5 0.5l5.9 0.4-5.7 1.1c-0.9 0.2-1.9 0.6-2.5 1.1-0.3 0.3-0.6 0.7-0.6 1q-0.1 0.5 0.3 1c0.6 0.6 1.6 1.1 2.6 1.3 1 0.3 2 0.5 3.1 0.6-1.1 0.1-2.2 0.1-3.2 0-1.1-0.1-2.3-0.3-3.2-1.2-0.5-0.4-0.9-1.1-0.8-1.8 0-0.8 0.4-1.3 0.8-1.8 0.9-0.9 2-1.4 3.2-1.7l0.1 1.6c-1 0-2.1-0.2-3.1-0.5-1-0.4-2-1-2.6-2.2-0.3-0.6-0.4-1.5-0.1-2.1 0.3-0.7 0.9-1.1 1.4-1.4 1-0.6 2.1-0.7 3.1-0.8l-0.1 1.6c-0.6-0.2-1.2-0.3-1.8-0.6-0.5-0.4-1.2-0.9-1.3-1.8 0-0.8 0.2-1.5 0.6-2 0.4-0.5 0.9-0.9 1.3-1.2 1.9-1.4 4.2-1.9 6.4-1.9z"/><path class="b" d="m161.9 107.4c0-76.8-129.6-65.1-114.4 21.9 14.9 85.4 114.4 127.3 114.4 127.3 0 0 99.5-41.9 114.4-127.3 15.2-87-114.4-98.7-114.4-21.9z"/><path class="d" d="m137.5 160.6c0 14.6-11.9 26.5-26.5 26.5-14.6 0-26.5-11.9-26.5-26.5 0-14.6 11.9-26.5 26.5-26.5 14.6 0 26.5 11.9 26.5 26.5z"/><path class="d" d="m239.2 160.6c0 14.6-11.8 26.5-26.4 26.5-14.7 0-26.5-11.9-26.5-26.5 0-14.6 11.8-26.5 26.5-26.5 14.6 0 26.4 11.9 26.4 26.5z"/><path class="c" d="m158.5 162.8c1-1.1 2.2-1.9 3.4-2.7 1.3-0.7 2.6-1.4 4.4-1.4 0.5 0 1.1 0.2 1.5 0.6 0.5 0.5 0.6 1.1 0.6 1.5 0.1 1-0.2 1.7-0.5 2.4-0.5 1.4-1.4 2.6-2.3 3.6 0.3-1.4 0.8-2.7 1.1-4 0.1-0.7 0.2-1.3 0.1-1.8-0.1-0.5-0.1-0.5-0.6-0.6-1-0.1-2.4 0.5-3.7 0.9-1.3 0.5-2.6 1-4 1.5z"/><g clip-path="url(#cp1)"><path class="c" d="m247.9 158.3c0 13.1-10.7 23.8-23.8 23.8-13.2 0-23.9-10.7-23.9-23.8 0-13.2 10.7-23.9 23.9-23.9 13.1 0 23.8 10.7 23.8 23.9z"/></g><g clip-path="url(#cp2)"><path class="c" d="m146.1 158.3c0 13.1-10.6 23.8-23.8 23.8-13.1 0-23.8-10.7-23.8-23.8 0-13.2 10.7-23.9 23.8-23.9 13.2 0 23.8 10.7 23.8 23.9z"/></g><path class="b" d="m137.5 185.3c0 3.7-11.9 6.7-26.5 6.7-14.6 0-26.5-3-26.5-6.7 0-3.7 11.9-6.7 26.5-6.7 14.6 0 26.5 3 26.5 6.7z"/><path class="b" d="m239.2 185.3c0 3.7-11.8 6.7-26.4 6.7-14.7 0-26.5-3-26.5-6.7 0-3.7 11.8-6.7 26.5-6.7 14.6 0 26.4 3 26.4 6.7z"/><path class="e" d="m201.6 57.7c30.8-3.4 67 22.7 57.9 74.4-14.9 85.4-105.9 102.5-105.9 102.5 0 0-74.7-16.3-100-82.8 26.3 70.2 108.3 104.8 108.3 104.8 0 0 99.5-41.9 114.4-127.3 9.5-54.6-38-79.6-74.7-71.6z"/><g style="opacity:.2"><path class="f" d="m98.5 76.8c-0.3 5-10.4 9.5-17 17.7-7.4 7.6-10.6 18.2-15.5 19.1-2.3 0.2-5.3-3.1-5.9-9.3-0.5-6 1.3-14.8 7.7-21.8 6.1-7.2 14.6-10.2 20.7-10.3 6.2-0.3 9.9 2.3 10 4.6z"/><path class="g" d="m98.5 76.8c-0.3 5-10.4 9.5-17 17.7-7.4 7.6-10.6 18.2-15.5 19.1-2.3 0.2-5.3-3.1-5.9-9.3-0.5-6 1.3-14.8 7.7-21.8 6.1-7.2 14.6-10.2 20.7-10.3 6.2-0.3 9.9 2.3 10 4.6z"/></g><g style="opacity:.2"><path class="h" d="m208.6 76.8c-0.2 5-10.3 9.5-17 17.7-7.3 7.6-10.5 18.2-15.4 19.1-2.3 0.2-5.4-3.1-5.9-9.3-0.6-6 1.3-14.8 7.7-21.8 6.1-7.2 14.6-10.2 20.7-10.3 6.2-0.3 9.9 2.3 9.9 4.6z"/></g><path class="c" d="m98.5 126.6c0.8-1.4 1.8-2.5 3-3.6q1.7-1.5 3.8-2.7c1.4-0.7 2.9-1.3 4.5-1.6 1.5-0.4 3.2-0.5 4.8 0.1-1.5 0.6-2.8 1.3-4.1 1.9-1.3 0.7-2.5 1.4-3.8 2.1-2.6 1.4-5.2 2.8-8.2 3.8z"/><path class="c" d="m212.8 116.8c1.7-0.4 3.4-0.3 5.2 0 1.7 0.2 3.4 0.7 5 1.4 1.6 0.7 3.1 1.6 4.4 2.8 1.4 1.2 2.5 2.7 2.9 4.5-1.4-1.1-2.8-1.9-4.1-2.7-1.4-0.8-2.9-1.4-4.4-2-2.9-1.3-5.9-2.4-9-4z"/><path class="c" d="m144.6 174.6c0 0 15.6 21.1 37.7-1-13.8 32.3-43.1 28.4-37.7 1z"/><path class="c" d="m144.6 174.6c0 0 15.6 21.1 37.7-1-13.8 32.3-43.1 28.4-37.7 1z"/><path class="i" d="m163 195.3c-2.3-6.2-9.2-9.5-18.1-7.7 2.7 7.9 10.1 10.8 18.1 7.7z"/><path class="b" d="m89.3 192.4c0 0-22.3 11.8-27.5 30.9-5.2 0-5.2 0-5.2 0 0 0 0.7-22.7 23.4-41.5 3.4 3.4 9.3 10.6 9.3 10.6z"/><path class="b" d="m62.9 220.2c3.4 0 9.1 10.2 6.8 12.5-2.3 2.2-5.5-5.9-6.8-4.6-1.3 1.3-0.6 12.2-4.5 12.2-4 0-1.6-12.2-1.6-12.2 0 0-1.8 10.5-5.5 10.5-3.7 0 0-10.8 0-10.8 0 0-3.2 8.3-5.4 6-2.3-2.3 1.9-18.4 12.1-16.7"/></svg>