<svg version="1.2" xmlns="http://www.w3.org/2000/svg" viewBox="0 0 292 242" width="200" height="166"><style>tspan{white-space:pre}.a{fill:#6b7280}</style><path class="a" d="m212.1 187.9c0 0 22.3 11.7 27.5 30.8 5.2 0 5.2 0 5.2 0 0 0-0.7-22.6-23.4-41.4-3.4 3.3-9.3 10.6-9.3 10.6z"/><path class="a" d="m238.5 215.6c-3.4 0-9.1 10.3-6.8 12.5 2.3 2.3 5.5-5.8 6.8-4.5 1.3 1.3 0.6 12.2 4.5 12.2 4 0 1.6-12.2 1.6-12.2 0 0 1.8 10.5 5.5 10.5 3.7 0 0-10.8 0-10.8 0 0 3.2 8.2 5.4 6 2.3-2.3-1.9-18.4-12.2-16.8"/><path class="a" d="m82.4 193.8c0 0-22.3 11.7-27.5 30.8-5.2 0-5.2 0-5.2 0 0 0 0.7-22.6 23.4-41.4 3.4 3.4 9.3 10.6 9.3 10.6z"/><path class="a" d="m56 221.5c3.4 0 9 10.3 6.8 12.5-2.3 2.3-5.5-5.8-6.8-4.5-1.3 1.3-0.6 12.2-4.6 12.2-3.9 0-1.5-12.2-1.5-12.2 0 0-1.9 10.5-5.6 10.5-3.7 0 0-10.8 0-10.8 0 0-3.1 8.2-5.4 6-2.2-2.3 2-18.4 12.2-16.7"/></svg>