<svg version="1.2" xmlns="http://www.w3.org/2000/svg" viewBox="0 0 292 292" width="200" height="200"><defs><linearGradient id="P" gradientUnits="userSpaceOnUse"/><linearGradient id="g1" x2="1" href="#P" gradientTransform="matrix(0,-200.273,223.853,0,58.049,243.522)"><stop stop-color="#636b76"/><stop offset="1" stop-color="#636b76"/></linearGradient><linearGradient id="g2" x2="1" href="#P" gradientTransform="matrix(0,-41.473,38.429,0,38.946,100.593)"><stop stop-color="#fff"/><stop offset="1" stop-color="#dfdff2"/></linearGradient><linearGradient id="g3" x2="1" href="#P" gradientTransform="matrix(0,-41.473,38.429,0,149.12,100.593)"><stop stop-color="#fff"/><stop offset="1" stop-color="#dfdff2"/></linearGradient></defs><style>tspan{white-space:pre}.a{fill:#6b7280}.b{fill:url(#g1)}.c{fill:url(#g2)}.d{fill:url(#g3)}.e{fill:#b7bbc1}.f{fill:#333b3b}</style><path class="a" d="m212.1 187.9c0 0 22.3 11.7 27.5 30.8 5.2 0 5.2 0 5.2 0 0 0-0.7-22.6-23.4-41.4-3.4 3.3-9.3 10.6-9.3 10.6z"/><path class="a" d="m238.5 215.6c-3.4 0-9.1 10.3-6.8 12.5 2.3 2.3 5.5-5.8 6.8-4.5 1.3 1.3 0.6 12.2 4.5 12.2 4 0 1.6-12.2 1.6-12.2 0 0 1.8 10.5 5.5 10.5 3.7 0 0-10.8 0-10.8 0 0 3.2 8.2 5.4 6 2.3-2.3-1.9-18.4-12.2-16.8"/><path class="a" d="m143.9 94.4c0-76.8-129.5-65.1-114.3 21.9 14.9 85.3 114.3 127.2 114.3 127.2 0 0 99.5-41.9 114.4-127.2 15.2-87-114.4-98.7-114.4-21.9z"/><path class="b" d="m183.6 44.7c30.9-3.4 67 22.7 58 74.4-14.9 85.4-105.9 102.4-105.9 102.4 0 0-74.8-16.3-100-82.7 26.3 70.2 108.2 104.7 108.2 104.7 0 0 99.5-41.9 114.4-127.2 9.6-54.7-38-79.6-74.7-71.6z"/><g style="opacity:.2"><path class="c" d="m80.5 63.8c-0.2 5-10.3 9.5-17 17.7-7.3 7.6-10.5 18.2-15.4 19.1-2.3 0.2-5.4-3.2-5.9-9.3-0.6-6 1.3-14.9 7.7-21.8 6.1-7.2 14.6-10.2 20.7-10.4 6.2-0.2 9.9 2.4 9.9 4.7z"/></g><g style="opacity:.2"><path class="d" d="m190.7 63.8c-0.3 5-10.4 9.5-17 17.7-7.3 7.6-10.5 18.2-15.4 19.1-2.4 0.2-5.4-3.2-5.9-9.3-0.6-6 1.3-14.9 7.7-21.8 6.1-7.2 14.6-10.2 20.6-10.4 6.2-0.2 10 2.4 10 4.7z"/></g><path class="e" d="m119.5 147.6c0 14.6-11.8 26.5-26.4 26.5-14.7 0-26.5-11.9-26.5-26.5 0-14.6 11.8-26.5 26.5-26.5 14.6 0 26.4 11.9 26.4 26.5z"/><path class="e" d="m221.3 147.6c0 14.6-11.9 26.5-26.5 26.5-14.6 0-26.5-11.9-26.5-26.5 0-14.6 11.9-26.5 26.5-26.5 14.6 0 26.5 11.9 26.5 26.5z"/><path class="f" d="m116.9 147.6c0 13.2-10.7 23.8-23.8 23.8-13.2 0-23.9-10.6-23.9-23.8 0-13.2 10.7-23.8 23.9-23.8 13.1 0 23.8 10.6 23.8 23.8z"/><path class="f" d="m218.7 147.6c0 13.2-10.7 23.8-23.9 23.8-13.1 0-23.8-10.6-23.8-23.8 0-13.2 10.7-23.8 23.8-23.8 13.2 0 23.9 10.6 23.9 23.8z"/><path class="f" d="m127.9 168.9c-0.2 1.3-0.3 2.7-0.3 4.1 0.1 1.3 0.3 2.6 0.8 3.8 0.5 1.1 1.3 2.1 2.4 2.6 1 0.5 2.2 0.5 3.4 0.2 2.4-0.7 4.4-2.6 6-4.7 1.5-2.1 2.7-4.6 3.7-7.2-0.3 2.7-1.1 5.5-2.6 8-1.5 2.4-3.7 4.6-6.6 5.5-1.5 0.4-3.2 0.4-4.7-0.4-1.4-0.7-2.4-2.1-2.8-3.6-0.9-2.9-0.3-5.8 0.7-8.3z"/><path class="f" d="m80.5 113.6c0.8-1.4 1.9-2.6 3.1-3.6q1.7-1.6 3.8-2.7c1.4-0.7 2.9-1.3 4.4-1.7 1.6-0.3 3.3-0.4 4.8 0.2-1.5 0.6-2.7 1.3-4 1.9-1.3 0.7-2.6 1.4-3.9 2.1-2.5 1.3-5.1 2.8-8.2 3.8z"/><path class="f" d="m194.8 103.8c1.8-0.4 3.5-0.3 5.2-0.1 1.7 0.3 3.4 0.7 5 1.5 1.6 0.7 3.2 1.5 4.5 2.8 1.3 1.2 2.5 2.7 2.9 4.4-1.4-1-2.8-1.9-4.2-2.6-1.4-0.8-2.8-1.4-4.3-2-2.9-1.3-6-2.4-9.1-4z"/><path class="f" d="m140.6 149.8c1-1.1 2.2-2 3.4-2.7 1.3-0.7 2.6-1.4 4.4-1.4 0.5 0 1.1 0.2 1.5 0.6 0.5 0.5 0.6 1 0.6 1.5 0 0.9-0.2 1.6-0.5 2.3-0.6 1.4-1.4 2.6-2.4 3.7 0.4-1.4 0.8-2.7 1.1-4.1 0.2-0.6 0.3-1.3 0.2-1.8-0.1-0.4-0.1-0.5-0.6-0.5-1-0.1-2.4 0.4-3.7 0.9-1.3 0.5-2.6 1-4 1.5z"/><path class="a" d="m82.4 193.8c0 0-22.3 11.7-27.5 30.8-5.2 0-5.2 0-5.2 0 0 0 0.7-22.6 23.4-41.4 3.4 3.4 9.3 10.6 9.3 10.6z"/><path class="a" d="m56 221.5c3.4 0 9 10.3 6.8 12.5-2.3 2.3-5.5-5.8-6.8-4.5-1.3 1.3-0.6 12.2-4.6 12.2-3.9 0-1.5-12.2-1.5-12.2 0 0-1.9 10.5-5.6 10.5-3.7 0 0-10.8 0-10.8 0 0-3.1 8.2-5.4 6-2.2-2.3 2-18.4 12.2-16.7"/></svg>